HIERARCHY
ROOT Hips
{
	OFFSET 0.00000 0.00000 0.00000
	CHANNELS 6 Xposition Yposition Zposition Zrotation Yrotation Xrotation 
	JOINT LHipJoint
	{
		OFFSET 0 0 0
		CHANNELS 3 Zrotation Yrotation Xrotation
		JOINT LeftUpLeg
		{
			OFFSET 1.62067 -1.77917 0.70989
			CHANNELS 3 Zrotation Yrotation Xrotation
			JOINT LeftLeg
			{
				OFFSET 2.34532 -6.44371 0.00000
				CHANNELS 3 Zrotation Yrotation Xrotation
				JOINT LeftFoot
				{
					OFFSET 2.74224 -7.53425 0.00000
					CHANNELS 3 Zrotation Yrotation Xrotation
					JOINT LeftToeBase
					{
						OFFSET 0.17032 -0.46794 2.08086
						CHANNELS 3 Zrotation Yrotation Xrotation
						End Site
						{
							OFFSET 0.00000 -0.00000 1.07476
						}
					}
				}
			}
		}
	}
	JOINT RHipJoint
	{
		OFFSET 0 0 0
		CHANNELS 3 Zrotation Yrotation Xrotation
		JOINT RightUpLeg
		{
			OFFSET -1.55811 -1.77917 0.70989
			CHANNELS 3 Zrotation Yrotation Xrotation
			JOINT RightLeg
			{
				OFFSET -2.33243 -6.40830 0.00000
				CHANNELS 3 Zrotation Yrotation Xrotation
				JOINT RightFoot
				{
					OFFSET -2.78798 -7.65993 0.00000
					CHANNELS 3 Zrotation Yrotation Xrotation
					JOINT RightToeBase
					{
						OFFSET -0.22707 -0.62388 2.04059
						CHANNELS 3 Zrotation Yrotation Xrotation
						End Site
						{
							OFFSET -0.00000 -0.00000 1.07030
						}
					}
				}
			}
		}
	}
	JOINT LowerBack
	{
		OFFSET 0 0 0
		CHANNELS 3 Zrotation Yrotation Xrotation
		JOINT Spine
		{
			OFFSET 0.02203 1.91565 0.07161
			CHANNELS 3 Zrotation Yrotation Xrotation
			JOINT Spine1
			{
				OFFSET 0.01740 1.90525 0.11636
				CHANNELS 3 Zrotation Yrotation Xrotation
				JOINT Neck
				{
					OFFSET 0 0 0
					CHANNELS 3 Zrotation Yrotation Xrotation
					JOINT Neck1
					{
						OFFSET -0.10841 1.83566 0.05067
						CHANNELS 3 Zrotation Yrotation Xrotation
						JOINT Head
						{
							OFFSET 0.06601 1.74760 -0.50505
							CHANNELS 3 Zrotation Yrotation Xrotation
							End Site
							{
								OFFSET 0.03102 1.85215 -0.17697
							}
						}
					}
				}
				JOINT LeftShoulder
				{
					OFFSET 0 0 0
					CHANNELS 3 Zrotation Yrotation Xrotation
					JOINT LeftArm
					{
						OFFSET 2.87059 1.35470 0.16111
						CHANNELS 3 Zrotation Yrotation Xrotation
						JOINT LeftForeArm
						{
							OFFSET 5.43592 -0.00000 0.00000
							CHANNELS 3 Zrotation Yrotation Xrotation
							JOINT LeftHand
							{
								OFFSET 3.25460 -0.00000 0.00000
								CHANNELS 3 Zrotation Yrotation Xrotation
								JOINT LeftFingerBase
								{
									OFFSET 0 0 0
									CHANNELS 3 Zrotation Yrotation Xrotation
									JOINT LeftHandIndex1
									{
										OFFSET 0.49824 -0.00000 0.00000
										CHANNELS 3 Zrotation Yrotation Xrotation
										End Site
										{
											OFFSET 0.40170 -0.00000 0.00000
										}
									}
								}
								JOINT LThumb
								{
									OFFSET 0 0 0
									CHANNELS 3 Zrotation Yrotation Xrotation
									End Site
									{
										OFFSET 0.40783 -0.00000 0.40783
									}
								}
							}
						}
					}
				}
				JOINT RightShoulder
				{
					OFFSET 0 0 0
					CHANNELS 3 Zrotation Yrotation Xrotation
					JOINT RightArm
					{
						OFFSET -2.86643 1.23488 0.45957
						CHANNELS 3 Zrotation Yrotation Xrotation
						JOINT RightForeArm
						{
							OFFSET -5.33830 -0.00000 0.00000
							CHANNELS 3 Zrotation Yrotation Xrotation
							JOINT RightHand
							{
								OFFSET -3.23148 -0.00000 0.00000
								CHANNELS 3 Zrotation Yrotation Xrotation
								JOINT RightFingerBase
								{
									OFFSET 0 0 0
									CHANNELS 3 Zrotation Yrotation Xrotation
									JOINT RightHandIndex1
									{
										OFFSET -0.46364 -0.00000 0.00000
										CHANNELS 3 Zrotation Yrotation Xrotation
										End Site
										{
											OFFSET -0.37380 -0.00000 0.00000
										}
									}
								}
								JOINT RThumb
								{
									OFFSET 0 0 0
									CHANNELS 3 Zrotation Yrotation Xrotation
									End Site
									{
										OFFSET -0.37951 -0.00000 0.37951
									}
								}
							}
						}
					}
				}
			}
		}
	}
}
MOTION
Frames: 11
Frame Time: 0.0555556
0.00 0.00 0.00 -409.7830 35.1952 105.6600 0.0000 0.0000 0.0000 47.5034 24.5127 -75.7249 0.7685 5.5978 15.6217 -1.0103 22.1848 -23.0137 0.0320 -1.1538 -3.1722 0.0000 0.0000 0.0000 29.8270 2.6571 -20.4473 -7.5012 -15.7399 50.7456 2.0026 -24.6263 -15.1687 -0.5528 4.7629 -13.2336 -4.5519 1.1861 4.8898 -5.5742 0.6996 -5.4470 -3.4496 0.4145 -8.5118 -7.2207 -0.9174 -36.1671 11.8607 0.5161 4.9661 5.3900 1.5043 6.9762 0.0000 0.0000 0.0000 28.1277 -37.6488 -42.5708 18.7057 -29.0513 -4.8871 -0.0000 0.0000 -27.6965 108.5368 35.2437 120.1596 -7.1250 0.0000 -0.0000 67.8260 -72.4177 -83.7914 0.0000 0.0000 0.0000 -59.7653 3.1731 -29.9178 -14.4931 23.4353 -3.0215 0.0000 0.0000 8.5138 -65.0532 -55.0353 60.4194 7.1250 -0.0000 -0.0000 -166.2963 76.2166 -169.9174
0.00 0.00 0.00 -403.2030 21.9062 101.8630 0.0000 0.0000 0.0000 42.4839 13.9763 -94.7708 6.0380 14.4651 45.1342 2.9465 18.2455 -42.6644 0.0734 1.7475 4.8083 0.0000 0.0000 0.0000 39.3981 7.6837 -29.0989 -9.0854 -16.8623 56.3849 1.2755 -23.2179 -22.3629 -0.0051 0.4593 -1.2621 -6.7961 -1.0293 8.1238 -6.0753 -2.7640 -4.1608 -2.2460 -1.1544 -9.0413 -3.6807 1.2005 -36.2999 13.2456 1.4109 6.0620 5.4906 2.2055 7.3379 -0.0000 0.0000 0.0000 26.5778 -35.9360 -41.5740 14.8705 -23.9654 -3.1731 -0.0000 0.0000 -30.8306 92.3686 39.2748 93.7385 -7.1250 0.0000 -0.0000 31.6176 -57.8629 -44.4145 -0.0000 0.0000 0.0000 -47.1460 -5.6461 -18.8558 -14.9222 24.0376 -3.1942 0.0000 0.0000 1.2527 -68.3429 -55.9261 64.3877 7.1250 -0.0000 -0.0000 -168.1048 73.8522 -171.8533
0.00 0.00 0.00 -399.1250 2.5343 91.6237 0.0000 0.0000 0.0000 26.6573 7.1171 -104.7438 10.4948 17.6788 61.1296 2.6661 14.7765 -38.8050 0.0421 -1.3244 -3.6418 0.0000 0.0000 0.0000 50.1862 7.0455 -41.1212 -5.4489 -13.8722 42.7279 0.8227 -16.7658 -12.2568 -0.4123 4.1219 -11.4198 -9.7354 -2.2701 16.7465 -7.4166 -5.8166 -1.3180 -1.2097 -2.4202 -10.7906 0.6590 2.6741 -28.9292 14.6175 1.7737 3.1546 4.9647 2.1955 5.4207 0.0000 -0.0000 0.0000 21.5997 -15.7455 -5.6200 15.6825 -25.0883 -3.5103 -0.0000 0.0000 -55.7620 57.8624 -23.4477 -32.3503 -7.1250 0.0000 -0.0000 16.5497 -7.7953 -19.4160 0.0000 -0.0000 0.0000 -12.3926 -8.4702 -29.0711 -16.2617 25.8742 -3.7595 0.0000 0.0000 6.3251 -55.6931 -54.6377 50.0810 7.1250 -0.0000 -0.0000 -170.4876 81.7340 -171.9464
0.00 0.00 0.00 -400.3190 -13.3978 86.9904 0.0000 0.0000 0.0000 24.6430 0.5375 -93.9739 9.1415 16.8979 56.5782 1.1692 22.6401 -38.4521 0.1814 2.7435 7.5654 0.0000 0.0000 0.0000 43.2297 7.2151 -45.8633 -3.9605 -12.1077 36.1140 0.2050 -9.5349 2.0511 -0.6931 5.3222 -14.8299 -7.6326 0.3530 15.6319 -5.8574 -1.6511 -1.1351 -1.6728 -0.5895 -10.0635 -2.1844 -0.2160 -26.9533 16.3954 -1.4471 2.7989 5.5640 0.5250 5.3554 0.0000 0.0000 0.0000 -9.5922 -15.5258 -2.1561 21.1676 -32.0234 -6.1386 -0.0000 0.0000 -32.1390 46.7104 -21.2900 -21.0787 -7.1250 0.0000 -0.0000 10.9450 0.8385 -10.9869 0.0000 0.0000 0.0000 2.8102 -10.2037 -23.6476 -18.5313 28.8321 -4.8027 0.0000 0.0000 3.3187 -55.9980 -54.1301 50.2250 7.1250 -0.0000 -0.0000 -167.8146 81.8955 -169.6387
0.00 0.00 0.00 -409.8580 -34.9011 83.0186 0.0000 0.0000 0.0000 20.2438 -1.8492 -70.2625 6.8853 15.2345 48.4390 0.8491 25.7884 -40.4377 0.5195 4.6192 12.8257 0.0000 0.0000 0.0000 31.8322 12.0920 -43.0101 -3.2336 -11.0639 32.4958 0.3455 -14.2317 5.2263 -0.0040 -0.4073 1.1192 -1.1682 1.7447 10.4646 -0.6706 2.1162 -1.8933 -0.4136 1.0641 -7.9044 -6.7379 -4.6332 -22.6321 22.2792 -8.2001 9.4665 7.5781 -2.3480 8.0905 0.0000 -0.0000 0.0000 -51.3097 -7.6629 17.2876 34.7468 -44.6305 -14.6352 -0.0000 0.0000 -19.1427 47.4143 -26.6117 -25.9835 -7.1250 0.0000 -0.0000 9.9708 -6.0469 -11.1276 0.0000 -0.0000 0.0000 38.4451 3.5370 -4.7678 -27.1156 38.2892 -9.5706 0.0000 -0.0000 -1.9224 -51.0378 -50.5863 43.6918 7.1250 -0.0000 -0.0000 -141.5213 86.6871 -143.6300
0.00 0.00 0.00 -424.8570 -60.0596 88.8253 0.0000 0.0000 0.0000 1.7415 4.8386 -56.9542 7.1323 15.4423 49.3728 2.2762 24.8974 -45.5365 0.9558 6.2256 17.4405 0.0000 0.0000 0.0000 23.7010 13.4626 -50.5202 -3.8129 -11.9071 35.4042 0.4404 -11.7080 -5.4062 -0.8893 6.0112 -16.8168 -3.0320 0.1756 8.8163 0.1765 -0.1029 -2.0764 1.9082 0.0835 -7.1376 -8.9905 -5.2729 -19.9572 20.3434 -9.2348 15.3731 7.3262 -2.9864 9.6882 0.0000 0.0000 0.0000 -47.4724 -14.2645 11.9338 31.1692 -41.8747 -12.1826 -0.0000 0.0000 -12.6258 50.1575 -29.1561 -30.2791 -7.1250 0.0000 -0.0000 10.7239 -10.4372 -12.6926 0.0000 0.0000 0.0000 74.4639 -0.5960 15.7718 -18.4931 28.7839 -4.7843 0.0000 0.0000 10.7542 -46.1329 -48.2467 37.8158 7.1250 -0.0000 -0.0000 -39.6648 -87.7244 38.1899
0.00 0.00 0.00 -521.1620 -68.4882 171.9720 0.0000 0.0000 0.0000 -2.7364 21.0055 -25.2714 7.9637 16.0925 52.4318 -0.0161 22.1214 -31.0895 1.3786 7.4299 20.9955 0.0000 0.0000 0.0000 31.6483 10.0415 -35.2120 -5.4068 -13.8278 42.5521 0.0055 -14.1227 -20.0028 -0.1693 -2.6508 7.3079 -0.6267 -5.1896 -9.4697 0.6543 -7.2173 -6.4363 0.4306 -3.7442 -1.2529 -14.7538 -6.1555 -10.8633 13.4945 -10.9969 27.9880 6.0105 -5.5307 12.6533 -0.0000 -0.0000 0.0000 -45.7454 -3.0526 17.7489 53.2199 -54.2144 -28.7664 -0.0000 0.0000 -9.8194 50.8235 -30.8735 -32.1988 -7.1250 0.0000 -0.0000 10.5432 -12.8031 -12.8094 -0.0000 -0.0000 0.0000 86.7175 -20.5953 27.1937 -13.7708 22.4061 -2.7401 0.0000 0.0000 8.8343 -31.1203 -46.8255 23.7629 7.1250 -0.0000 -0.0000 24.7174 -80.4083 -20.4074
0.00 0.00 0.00 -533.8950 -45.5972 183.8090 0.0000 0.0000 0.0000 -5.8269 4.8014 -22.1903 12.8655 18.7331 68.7073 1.6699 6.6781 -27.5983 0.1546 2.5338 6.9835 0.0000 0.0000 0.0000 33.9981 19.2180 -24.6221 -5.4638 -13.8878 42.7898 -1.2338 -3.1067 -22.3096 -0.6917 -5.3169 14.8146 3.3684 -2.6111 -10.0848 1.7984 -4.2366 -6.5176 -0.3878 -2.4016 -1.2378 -12.7103 -4.9442 -8.4615 10.8732 -9.1812 26.2748 4.8888 -4.9125 10.8982 -0.0000 -0.0000 0.0000 -61.4119 2.6831 19.9227 48.9427 -52.5601 -25.3322 -0.0000 0.0000 -9.6495 46.9796 -30.2833 -28.3861 -7.1250 0.0000 -0.0000 8.6950 -10.1696 -10.2012 -0.0000 -0.0000 0.0000 87.0632 -8.6652 38.4030 -20.8748 31.6819 -5.9840 0.0000 0.0000 6.6481 -29.7225 -44.8812 21.9424 7.1250 -0.0000 -0.0000 20.4815 -78.2325 -15.9832
0.00 0.00 0.00 -536.7430 -6.0077 191.6540 0.0000 0.0000 0.0000 -4.8460 -24.5813 -48.3520 12.2064 18.4765 66.6416 1.5002 5.7533 -25.8378 0.1601 -2.5780 -7.1061 0.0000 0.0000 0.0000 36.3483 26.1708 -8.9023 -4.8636 -13.2285 40.2299 -0.6545 17.8466 -17.9474 -0.8706 -5.9490 16.6364 9.1374 2.6966 -5.4873 2.4945 2.7122 -5.5449 -2.4009 0.8372 -2.3777 -8.4480 -3.3890 -12.7800 4.8266 -5.4190 25.4636 2.3662 -3.2269 10.6306 -0.0000 -0.0000 0.0000 -77.7635 18.9849 31.6572 28.1516 -39.2554 -10.2195 -0.0000 0.0000 -11.8972 34.6722 -25.0902 -16.3473 -7.1250 0.0000 -0.0000 3.0347 0.3626 -3.0197 -0.0000 -0.0000 0.0000 89.3022 5.5369 71.2782 -23.3266 34.4440 -7.3222 0.0000 0.0000 16.9300 -24.1872 -37.5180 15.2983 7.1250 -0.0000 -0.0000 14.9746 -69.5365 -8.8641
0.00 0.00 0.00 -536.9950 10.3965 196.6490 0.0000 0.0000 0.0000 -7.3719 -19.0957 -56.7419 7.1921 15.4916 49.5973 0.4920 -1.7274 -12.7660 1.1158 -6.7106 -18.8608 0.0000 0.0000 0.0000 32.3412 25.9922 -3.6788 -3.8142 -11.9089 35.4106 1.3396 26.5687 -9.0553 -0.0095 0.6302 -1.7318 9.5963 4.5456 -6.2827 1.0020 6.3743 -6.1879 -3.9812 3.1745 -2.1110 -7.3315 -3.0200 -15.2322 3.9872 -4.7700 26.1933 1.9272 -2.8937 11.2849 0.0000 0.0000 0.0000 -83.2673 25.5557 30.0493 19.1654 -29.6237 -5.1123 -0.0000 0.0000 -13.7199 30.5824 -25.5327 -14.2910 -7.1250 0.0000 -0.0000 0.5214 0.9563 -0.5126 0.0000 0.0000 0.0000 90.8919 7.4424 77.4836 -23.7718 34.9220 -7.5755 0.0000 0.0000 18.6391 -20.2445 -34.5671 11.8188 7.1250 -0.0000 -0.0000 16.6647 -65.5471 -8.3763
0.00 0.00 0.00 -535.3010 14.6980 198.7100 0.0000 0.0000 0.0000 -7.4718 -17.0611 -57.1179 6.1686 14.5898 45.6548 0.2530 -1.2449 -9.1443 0.8955 -6.0313 -16.8751 0.0000 0.0000 0.0000 32.0275 25.5206 -1.7528 -3.4774 -11.4305 33.7459 2.8799 28.4400 9.6117 -1.9413 -8.7428 24.9940 11.5339 5.4712 -7.9958 0.5855 7.4600 -6.8810 -5.2317 3.7090 -1.5305 -6.0603 -4.0798 -15.2647 3.6368 -3.9500 26.8233 1.8989 -1.4695 11.4681 0.0000 0.0000 0.0000 -85.3671 28.5316 24.3109 16.4611 -26.1419 -3.8469 -0.0000 0.0000 -10.6179 28.0823 -22.5576 -11.5674 -7.1250 0.0000 -0.0000 -0.5463 4.7686 0.4990 0.0000 0.0000 0.0000 91.3886 5.4237 75.3842 -24.6836 35.8789 -8.1038 0.0000 0.0000 17.0531 -17.1635 -35.3501 10.1315 7.1250 -0.0000 -0.0000 21.0409 -65.4071 -10.5877
